<svg xmlns="http://www.w3.org/2000/svg" viewBox="0 0 24 24" fill="currentColor">
  <path d="M21 5c-1.1-.55-2.3-.83-3.5-.83-1.7 0-3.4.5-4.9 1.32-1.5-.82-3.2-1.32-4.9-1.32C5.5 4.17 4.3 4.45 3 5v15c1.2-.65 2.4-.96 3.5-.96 1.7 0 3.4.5 4.9 1.32 1.5-.82 3.2-1.32 4.9-1.32 1.2 0 2.3.21 3.5.63zM9.5 6.1c1.4 0 2.9.35 4.5 1.05v11.2c-1.6-.7-3.1-1.05-4.5-1.05-1.4 0-2.9.35-4.5 1.05V7.15c1.6-.8 3.1-1.05 4.5-1.05Zm9 0v11.25a10.55 10.55 0 0 0-3.5-.6c-.5 0-.97.02-1.44.07V7.15c1.1-.5 2.3-.75 3.5-.75.47 0 .94.05 1.44.15Z"/>
</svg>
