<svg xmlns="http://www.w3.org/2000/svg" viewBox="0 0 640 640" role="img" aria-label="Cloudflare">
  <path fill="#f48120" d="M407.9 383.9 177.1 381c-.7 0-1.4-.2-2-.5a3.9 3.9 0 0 1-1.6-1.4c-.4-.6-.7-1.3-.7-2 0-.7 0-1.4.2-2.1.4-1.1 1.1-2.1 2.1-2.8 1-.7 2.1-1.2 3.3-1.2l232.9-2.9c27.6-1.3 57.5-23.6 68-50.8l13.3-34.5c.4-.9.5-1.9.5-2.9a6 6 0 0 0-.2-1.6 96.6 96.6 0 0 0-50.3-82c-25.3-21.2-56.7-33.7-89.7-35.5-33-1.8-65.6 7.3-93 25.7-27.4 18.4-48 45.3-58.8 76.5-11.3-8.5-24.9-13.3-39-13.7-14.1-.4-28 3.5-39.8 11.4-11.8 7.9-20.8 19.1-25.9 32.3-5.1 13.2-5.9 27.6-2.4 41.3C41.7 335.5-.2 378.1-.2 430.5c0 4.7.3 9.3 1 14 .2 1.1.7 2.1 1.5 2.8.8.7 1.9 1.1 2.9 1.1l426.1.1c1.2 0 2.3-.4 3.3-1.1 1-.7 1.6-1.7 2-2.9l3.3-11.3c3.9-13.4 2.4-25.8-4.1-34.9-6-8.4-16.1-13.3-28.2-13.9zm105.9-98.8c-2.1 0-4.3.1-6.4.2-.8.1-1.5.3-2.1.8-.6.5-1 1.1-1.3 1.8l-9.1 31.2c-3.9 13.4-2.4 25.8 4.1 34.9 6 8.4 16.1 13.3 28.2 13.9l49.2 2.9c.7 0 1.4.2 2 .5.6.3 1.1.8 1.5 1.4.4.6.7 1.3.8 2s-.1 1.5-.3 2.1c-.4 1.1-1.1 2.1-2.1 2.8-1 .7-2.1 1.2-3.3 1.2l-51.1 2.9c-27.8 1.3-57.7 23.6-68.1 50.8l-3.7 9.6c-.2.4-.2.8-.2 1.3 0 .5.2.8.4 1.2.2.4.6.7.9.9.3.2.8.3 1.2.3l176-.1c1 0 2-.3 2.8-.9.8-.6 1.4-1.5 1.7-2.4 3.1-11.1 4.7-22.5 4.7-34 0-69.3-56.5-125.5-126.1-125.5z"/>
</svg>
